<svg width="196" height="36" viewBox="0 0 196 36" fill="none" xmlns="http://www.w3.org/2000/svg">
<g clip-path="url(#clip0_309_9)">
<path d="M0 10.3508L14.5 2V19.6126L0 27.2042V10.3508Z" fill="#91A9FF"/>
<path d="M28.9241 10.3508L14.4241 2V19.6126L28.9241 27.2042V10.3508Z" fill="#5E81FF"/>
<path d="M14.4241 19.6125L28.9241 27.2041L14.4241 34.7957L0 27.2041L14.4241 19.6125Z" fill="#3C65F5"/>
</g>
<path d="M40.517 26V8.54545H47.4034C48.7273 8.54545 49.8551 8.7983 50.7869 9.30398C51.7188 9.80398 52.429 10.5 52.9176 11.392C53.4119 12.2784 53.6591 13.3011 53.6591 14.4602C53.6591 15.6193 53.4091 16.642 52.9091 17.5284C52.4091 18.4148 51.6847 19.1051 50.7358 19.5994C49.7926 20.0937 48.6506 20.3409 47.3097 20.3409H42.9205V17.3835H46.7131C47.4233 17.3835 48.0085 17.2614 48.4688 17.017C48.9347 16.767 49.2813 16.4233 49.5085 15.9858C49.7415 15.5426 49.858 15.0341 49.858 14.4602C49.858 13.8807 49.7415 13.375 49.5085 12.9432C49.2813 12.5057 48.9347 12.1676 48.4688 11.929C48.0028 11.6847 47.4119 11.5625 46.696 11.5625H44.2074V26H40.517ZM59.6186 18.4318V26H55.9879V8.54545H59.5163V15.2188H59.6697C59.9652 14.446 60.4425 13.8409 61.1016 13.4034C61.7607 12.9602 62.5874 12.7386 63.5817 12.7386C64.4908 12.7386 65.2834 12.9375 65.9595 13.3352C66.6413 13.7273 67.1697 14.2926 67.5447 15.0312C67.9254 15.7642 68.1129 16.642 68.1072 17.6648V26H64.4766V18.3125C64.4822 17.5057 64.2777 16.8778 63.8629 16.429C63.4538 15.9801 62.88 15.7557 62.1413 15.7557C61.647 15.7557 61.2095 15.8608 60.8288 16.071C60.4538 16.2812 60.1584 16.5881 59.9425 16.9915C59.7322 17.3892 59.6243 17.8693 59.6186 18.4318ZM76.8793 26.2557C75.5554 26.2557 74.4105 25.9744 73.4446 25.4119C72.4844 24.8437 71.7429 24.054 71.2202 23.0426C70.6974 22.0256 70.4361 20.8466 70.4361 19.5057C70.4361 18.1534 70.6974 16.9716 71.2202 15.9602C71.7429 14.9432 72.4844 14.1534 73.4446 13.5909C74.4105 13.0227 75.5554 12.7386 76.8793 12.7386C78.2031 12.7386 79.3452 13.0227 80.3054 13.5909C81.2713 14.1534 82.0156 14.9432 82.5384 15.9602C83.0611 16.9716 83.3224 18.1534 83.3224 19.5057C83.3224 20.8466 83.0611 22.0256 82.5384 23.0426C82.0156 24.054 81.2713 24.8437 80.3054 25.4119C79.3452 25.9744 78.2031 26.2557 76.8793 26.2557ZM76.8963 23.4432C77.4986 23.4432 78.0014 23.2727 78.4048 22.9318C78.8082 22.5852 79.1122 22.1136 79.3168 21.517C79.527 20.9205 79.6321 20.2415 79.6321 19.4801C79.6321 18.7188 79.527 18.0398 79.3168 17.4432C79.1122 16.8466 78.8082 16.375 78.4048 16.0284C78.0014 15.6818 77.4986 15.5085 76.8963 15.5085C76.2884 15.5085 75.777 15.6818 75.3622 16.0284C74.9531 16.375 74.6435 16.8466 74.4332 17.4432C74.2287 18.0398 74.1264 18.7188 74.1264 19.4801C74.1264 20.2415 74.2287 20.9205 74.4332 21.517C74.6435 22.1136 74.9531 22.5852 75.3622 22.9318C75.777 23.2727 76.2884 23.4432 76.8963 23.4432ZM92.6463 12.9091V15.6364H84.7628V12.9091H92.6463ZM86.5526 9.77273H90.1832V21.9773C90.1832 22.3125 90.2344 22.5739 90.3366 22.7614C90.4389 22.9432 90.581 23.071 90.7628 23.1449C90.9503 23.2187 91.1662 23.2557 91.4105 23.2557C91.581 23.2557 91.7514 23.2415 91.9219 23.2131C92.0923 23.179 92.223 23.1534 92.3139 23.1364L92.8849 25.8381C92.7031 25.8949 92.4474 25.9602 92.1179 26.0341C91.7884 26.1136 91.3878 26.1619 90.9162 26.179C90.0412 26.2131 89.2741 26.0966 88.6151 25.8295C87.9616 25.5625 87.4531 25.1477 87.0895 24.5852C86.7259 24.0227 86.5469 23.3125 86.5526 22.4545V9.77273ZM100.786 26.2557C99.4616 26.2557 98.3168 25.9744 97.3509 25.4119C96.3906 24.8437 95.6491 24.054 95.1264 23.0426C94.6037 22.0256 94.3423 20.8466 94.3423 19.5057C94.3423 18.1534 94.6037 16.9716 95.1264 15.9602C95.6491 14.9432 96.3906 14.1534 97.3509 13.5909C98.3168 13.0227 99.4616 12.7386 100.786 12.7386C102.109 12.7386 103.251 13.0227 104.212 13.5909C105.178 14.1534 105.922 14.9432 106.445 15.9602C106.967 16.9716 107.229 18.1534 107.229 19.5057C107.229 20.8466 106.967 22.0256 106.445 23.0426C105.922 24.054 105.178 24.8437 104.212 25.4119C103.251 25.9744 102.109 26.2557 100.786 26.2557ZM100.803 23.4432C101.405 23.4432 101.908 23.2727 102.311 22.9318C102.714 22.5852 103.018 22.1136 103.223 21.517C103.433 20.9205 103.538 20.2415 103.538 19.4801C103.538 18.7188 103.433 18.0398 103.223 17.4432C103.018 16.8466 102.714 16.375 102.311 16.0284C101.908 15.6818 101.405 15.5085 100.803 15.5085C100.195 15.5085 99.6832 15.6818 99.2685 16.0284C98.8594 16.375 98.5497 16.8466 98.3395 17.4432C98.1349 18.0398 98.0327 18.7188 98.0327 19.4801C98.0327 20.2415 98.1349 20.9205 98.3395 21.517C98.5497 22.1136 98.8594 22.5852 99.2685 22.9318C99.6832 23.2727 100.195 23.4432 100.803 23.4432ZM113.22 8.54545V26H109.589V8.54545H113.22ZM119.862 26.2472C119.026 26.2472 118.282 26.1023 117.629 25.8125C116.975 25.517 116.458 25.0824 116.077 24.5085C115.702 23.929 115.515 23.2074 115.515 22.3438C115.515 21.6165 115.648 21.0057 115.915 20.5114C116.183 20.017 116.546 19.6193 117.006 19.3182C117.467 19.017 117.989 18.7898 118.575 18.6364C119.165 18.483 119.785 18.375 120.433 18.3125C121.194 18.233 121.808 18.1591 122.273 18.0909C122.739 18.017 123.077 17.9091 123.288 17.767C123.498 17.625 123.603 17.4148 123.603 17.1364V17.0852C123.603 16.5455 123.433 16.1278 123.092 15.8324C122.756 15.5369 122.279 15.3892 121.66 15.3892C121.006 15.3892 120.487 15.5341 120.1 15.8239C119.714 16.108 119.458 16.4659 119.333 16.8977L115.975 16.625C116.146 15.8295 116.481 15.142 116.981 14.5625C117.481 13.9773 118.126 13.5284 118.915 13.2159C119.711 12.8977 120.631 12.7386 121.677 12.7386C122.404 12.7386 123.1 12.8239 123.765 12.9943C124.435 13.1648 125.029 13.429 125.546 13.7869C126.069 14.1449 126.481 14.6051 126.782 15.1676C127.083 15.7244 127.234 16.392 127.234 17.1705V26H123.79V24.1847H123.688C123.478 24.5938 123.197 24.9545 122.844 25.267C122.492 25.5739 122.069 25.8153 121.575 25.9915C121.08 26.1619 120.509 26.2472 119.862 26.2472ZM120.901 23.7415C121.435 23.7415 121.907 23.6364 122.316 23.4261C122.725 23.2102 123.046 22.9205 123.279 22.5568C123.512 22.1932 123.629 21.7812 123.629 21.321V19.9318C123.515 20.0057 123.359 20.0739 123.16 20.1364C122.967 20.1932 122.748 20.2472 122.504 20.2983C122.259 20.3437 122.015 20.3864 121.771 20.4261C121.526 20.4602 121.305 20.4915 121.106 20.5199C120.68 20.5824 120.308 20.6818 119.989 20.8182C119.671 20.9545 119.424 21.1392 119.248 21.3722C119.072 21.5994 118.984 21.8835 118.984 22.2244C118.984 22.7188 119.163 23.0966 119.521 23.358C119.884 23.6136 120.344 23.7415 120.901 23.7415ZM133.681 18.4318V26H130.05V12.9091H133.511V15.2188H133.664C133.954 14.4574 134.44 13.8551 135.121 13.4119C135.803 12.9631 136.63 12.7386 137.602 12.7386C138.511 12.7386 139.303 12.9375 139.979 13.3352C140.656 13.733 141.181 14.3011 141.556 15.0398C141.931 15.7727 142.119 16.6477 142.119 17.6648V26H138.488V18.3125C138.494 17.5114 138.289 16.8864 137.874 16.4375C137.46 15.983 136.888 15.7557 136.161 15.7557C135.673 15.7557 135.241 15.8608 134.866 16.071C134.496 16.2812 134.207 16.5881 133.996 16.9915C133.792 17.3892 133.687 17.8693 133.681 18.4318ZM150.895 26.2557C149.554 26.2557 148.401 25.9716 147.435 25.4034C146.474 24.8295 145.736 24.0341 145.219 23.017C144.707 22 144.452 20.8295 144.452 19.5057C144.452 18.1648 144.71 16.9886 145.227 15.9773C145.75 14.9602 146.491 14.1676 147.452 13.5994C148.412 13.0256 149.554 12.7386 150.878 12.7386C152.02 12.7386 153.02 12.946 153.878 13.3608C154.736 13.7756 155.415 14.358 155.915 15.108C156.415 15.858 156.69 16.7386 156.741 17.75H153.315C153.219 17.0966 152.963 16.571 152.548 16.1733C152.139 15.7699 151.602 15.5682 150.938 15.5682C150.375 15.5682 149.884 15.7216 149.463 16.0284C149.048 16.3295 148.724 16.7699 148.491 17.3494C148.259 17.929 148.142 18.6307 148.142 19.4545C148.142 20.2898 148.256 21 148.483 21.5852C148.716 22.1705 149.043 22.6165 149.463 22.9233C149.884 23.2301 150.375 23.3835 150.938 23.3835C151.352 23.3835 151.724 23.2983 152.054 23.1278C152.389 22.9574 152.665 22.7102 152.881 22.3864C153.102 22.0568 153.247 21.6619 153.315 21.2017H156.741C156.685 22.2017 156.412 23.0824 155.923 23.8438C155.44 24.5994 154.773 25.1903 153.92 25.6165C153.068 26.0426 152.06 26.2557 150.895 26.2557ZM165.032 26.2557C163.685 26.2557 162.526 25.983 161.555 25.4375C160.589 24.8864 159.844 24.108 159.322 23.1023C158.799 22.0909 158.538 20.8949 158.538 19.5142C158.538 18.1676 158.799 16.9858 159.322 15.9688C159.844 14.9517 160.58 14.1591 161.529 13.5909C162.484 13.0227 163.603 12.7386 164.887 12.7386C165.751 12.7386 166.555 12.8778 167.299 13.1562C168.049 13.429 168.702 13.8409 169.259 14.392C169.822 14.9432 170.259 15.6364 170.572 16.4716C170.884 17.3011 171.04 18.2727 171.04 19.3864V20.3835H159.987V18.1335H167.623C167.623 17.6108 167.509 17.1477 167.282 16.7443C167.055 16.3409 166.739 16.0256 166.336 15.7983C165.938 15.5653 165.475 15.4489 164.947 15.4489C164.396 15.4489 163.907 15.5767 163.481 15.8324C163.06 16.0824 162.731 16.4205 162.492 16.8466C162.254 17.267 162.131 17.7358 162.126 18.2528V20.392C162.126 21.0398 162.245 21.5994 162.484 22.071C162.728 22.5426 163.072 22.9062 163.515 23.1619C163.958 23.4176 164.484 23.5455 165.092 23.5455C165.495 23.5455 165.864 23.4886 166.2 23.375C166.535 23.2614 166.822 23.0909 167.06 22.8636C167.299 22.6364 167.481 22.358 167.606 22.0284L170.964 22.25C170.793 23.0568 170.444 23.7614 169.915 24.3636C169.393 24.9602 168.717 25.4261 167.887 25.7614C167.063 26.0909 166.112 26.2557 165.032 26.2557ZM173.41 26V12.9091H176.93V15.1932H177.066C177.305 14.3807 177.705 13.767 178.268 13.3523C178.83 12.9318 179.478 12.7216 180.211 12.7216C180.393 12.7216 180.589 12.733 180.799 12.7557C181.009 12.7784 181.194 12.8097 181.353 12.8494V16.071C181.183 16.0199 180.947 15.9744 180.646 15.9347C180.344 15.8949 180.069 15.875 179.819 15.875C179.285 15.875 178.808 15.9915 178.387 16.2244C177.972 16.4517 177.643 16.7699 177.398 17.179C177.16 17.5881 177.04 18.0597 177.04 18.5938V26H173.41ZM194.122 16.642L190.798 16.8466C190.741 16.5625 190.619 16.3068 190.432 16.0795C190.244 15.8466 189.997 15.6619 189.69 15.5256C189.389 15.3835 189.028 15.3125 188.608 15.3125C188.045 15.3125 187.571 15.4318 187.185 15.6705C186.798 15.9034 186.605 16.2159 186.605 16.608C186.605 16.9205 186.73 17.1847 186.98 17.4006C187.23 17.6165 187.659 17.7898 188.267 17.9205L190.636 18.3977C191.909 18.6591 192.858 19.0795 193.483 19.6591C194.108 20.2386 194.42 21 194.42 21.9432C194.42 22.8011 194.168 23.554 193.662 24.2017C193.162 24.8494 192.474 25.3551 191.599 25.7188C190.73 26.0767 189.727 26.2557 188.591 26.2557C186.858 26.2557 185.477 25.8949 184.449 25.1733C183.426 24.446 182.827 23.4574 182.651 22.2074L186.222 22.0199C186.33 22.5483 186.591 22.9517 187.006 23.2301C187.42 23.5028 187.952 23.6392 188.599 23.6392C189.236 23.6392 189.747 23.517 190.134 23.2727C190.526 23.0227 190.724 22.7017 190.73 22.3097C190.724 21.9801 190.585 21.7102 190.312 21.5C190.04 21.2841 189.619 21.1193 189.051 21.0057L186.784 20.554C185.506 20.2983 184.554 19.8551 183.929 19.2244C183.31 18.5937 183 17.7898 183 16.8125C183 15.9716 183.227 15.2472 183.682 14.6392C184.142 14.0312 184.787 13.5625 185.616 13.233C186.452 12.9034 187.429 12.7386 188.548 12.7386C190.202 12.7386 191.503 13.0881 192.452 13.7869C193.406 14.4858 193.963 15.4375 194.122 16.642Z" fill="#05264E"/>
<defs>
<clipPath id="clip0_309_9">
<rect width="139" height="36" fill="white"/>
</clipPath>
</defs>
</svg>
